#Comment line ignore any data following # character 
#Hierarchical Translation and Rotation (.htr) file 
[Header]	
#Header keywords are followed by a single value 
FileType HTR		#Single word string
DataType HTRS		#Translation followed by rotation and scale data
FileVersion 1		#integer
NumSegments 84		#integer
NumFrames 2		#integer
DataFrameRate 30		#integer, data frame rate in this file
EulerRotationOrder ZYX
CalibrationUnits mm
RotationUnits Degrees
GlobalAxisofGravity Y
BoneLengthAxis Y
ScaleFactor 1.00
[SegmentNames&Hierarchy]
#CHILD	PARENT
MASTER GLOBAL
root MASTER
chest root
L_mid_tent01 root
R_mid_tent01 root
spine01 root
Bip01_Neck chest
L_humerus chest
R_humerus chest
weapon_bone chest
Bip01_Head Bip01_Neck
eye_left_bone Bip01_Head
eye_right_bone Bip01_Head
L_forearm L_humerus
L_front_hand L_forearm
L_weapon_bone L_forearm
L_front_hand01_01 L_front_hand
L_front_hand02_01 L_front_hand
L_front_hand03_01 L_front_hand
L_front_hand01_02 L_front_hand01_01
L_front_hand02_02 L_front_hand02_01
L_front_hand03_02 L_front_hand03_01
R_forearm R_humerus
R_front_hand R_forearm
R_weapon_bone R_forearm
R_front_hand01_01 R_front_hand
R_front_hand02_01 R_front_hand
R_front_hand03_01 R_front_hand
R_front_hand01_02 R_front_hand01_01
R_front_hand02_02 R_front_hand02_01
R_front_hand03_02 R_front_hand03_01
null_rope01_connect L_mid_tent01
Rope1_Seg01 null_rope01_connect
Rope1_Seg02 Rope1_Seg01
Rope1_Seg03 Rope1_Seg02
Rope1_Seg04 Rope1_Seg03
Rope1_Seg05 Rope1_Seg04
Rope1_Seg06 Rope1_Seg05
Rope1_Seg07 Rope1_Seg06
Rope1_Seg09 Rope1_Seg07
L_mid_hand01 Rope1_Seg09
L_mid_hand02 Rope1_Seg09
L_mid_hand03 Rope1_Seg09
null_rope02_connect R_mid_tent01
Rope2_Seg01 null_rope02_connect
Rope2_Seg02 Rope2_Seg01
Rope2_Seg03 Rope2_Seg02
Rope2_Seg04 Rope2_Seg03
Rope2_Seg05 Rope2_Seg04
Rope2_Seg06 Rope2_Seg05
Rope2_Seg07 Rope2_Seg06
Rope2_Seg09 Rope2_Seg07
R_mid_hand01 Rope2_Seg09
R_mid_hand02 Rope2_Seg09
R_mid_hand03 Rope2_Seg09
spine02 spine01
spine03 spine02
pelvis spine03
null_rope03_connect pelvis
null_rope04_connect pelvis
Rope3_Seg01 null_rope03_connect
Rope3_Seg02 Rope3_Seg01
Rope3_Seg03 Rope3_Seg02
Rope3_Seg04 Rope3_Seg03
Rope3_Seg05 Rope3_Seg04
Rope3_Seg06 Rope3_Seg05
Rope3_Seg07 Rope3_Seg06
Rope3_Seg08 Rope3_Seg07
Rope3_Seg09 Rope3_Seg08
R_rear_hand01 Rope3_Seg09
R_rear_hand02 Rope3_Seg09
R_rear_hand03 Rope3_Seg09
Rope4_Seg01 null_rope04_connect
Rope4_Seg02 Rope4_Seg01
Rope4_Seg03 Rope4_Seg02
Rope4_Seg04 Rope4_Seg03
Rope4_Seg05 Rope4_Seg04
Rope4_Seg06 Rope4_Seg05
Rope4_Seg07 Rope4_Seg06
Rope4_Seg08 Rope4_Seg07
Rope4_Seg09 Rope4_Seg08
L_rear_hand01 Rope4_Seg09
L_rear_hand02 Rope4_Seg09
L_rear_hand03 Rope4_Seg09
[BasePosition]
#SegmentName Tx, Ty, Tz, Rx, Ry, Rz, BoneLength
MASTER 0.000000 0.000000 0.000000 -90.000000 0.000000 0.000000 10.000000 
root 0.000000 0.000000 0.000000 0.000000 0.000000 0.000000 10.000000 
chest 0.000000 0.000000 0.000000 0.000000 0.000000 0.000000 10.000000 
L_mid_tent01 0.000000 0.000000 0.000000 0.000000 0.000000 0.000000 10.000000 
R_mid_tent01 0.000000 0.000000 0.000000 0.000000 0.000000 0.000000 10.000000 
spine01 0.000000 0.000000 0.000000 0.000000 0.000000 0.000000 10.000000 
Bip01_Neck 0.000000 0.000000 0.000000 0.000000 0.000000 0.000000 10.000000 
L_humerus 0.000000 0.000000 0.000000 0.000000 0.000000 0.000000 10.000000 
R_humerus 0.000000 0.000000 0.000000 0.000000 0.000000 0.000000 10.000000 
weapon_bone 0.000000 0.000000 0.000000 0.000000 0.000000 0.000000 10.000000 
Bip01_Head 0.000000 0.000000 0.000000 0.000000 0.000000 0.000000 10.000000 
eye_left_bone 0.000000 0.000000 0.000000 0.000000 0.000000 0.000000 10.000000 
eye_right_bone 0.000000 0.000000 0.000000 0.000000 0.000000 0.000000 10.000000 
L_forearm 0.000000 0.000000 0.000000 0.000000 0.000000 0.000000 10.000000 
L_front_hand 0.000000 0.000000 0.000000 0.000000 0.000000 0.000000 10.000000 
L_weapon_bone 0.000000 0.000000 0.000000 0.000000 0.000000 0.000000 10.000000 
L_front_hand01_01 0.000000 0.000000 0.000000 0.000000 0.000000 0.000000 10.000000 
L_front_hand02_01 0.000000 0.000000 0.000000 0.000000 0.000000 0.000000 10.000000 
L_front_hand03_01 0.000000 0.000000 0.000000 0.000000 0.000000 0.000000 10.000000 
L_front_hand01_02 0.000000 0.000000 0.000000 0.000000 0.000000 0.000000 10.000000 
L_front_hand02_02 0.000000 0.000000 0.000000 0.000000 0.000000 0.000000 10.000000 
L_front_hand03_02 0.000000 0.000000 0.000000 0.000000 0.000000 0.000000 10.000000 
R_forearm 0.000000 0.000000 0.000000 0.000000 0.000000 0.000000 10.000000 
R_front_hand 0.000000 0.000000 0.000000 0.000000 0.000000 0.000000 10.000000 
R_weapon_bone 0.000000 0.000000 0.000000 0.000000 0.000000 0.000000 10.000000 
R_front_hand01_01 0.000000 0.000000 0.000000 0.000000 0.000000 0.000000 10.000000 
R_front_hand02_01 0.000000 0.000000 0.000000 0.000000 0.000000 0.000000 10.000000 
R_front_hand03_01 0.000000 0.000000 0.000000 0.000000 0.000000 0.000000 10.000000 
R_front_hand01_02 0.000000 0.000000 0.000000 0.000000 0.000000 0.000000 10.000000 
R_front_hand02_02 0.000000 0.000000 0.000000 0.000000 0.000000 0.000000 10.000000 
R_front_hand03_02 0.000000 0.000000 0.000000 0.000000 0.000000 0.000000 10.000000 
null_rope01_connect 0.000000 0.000000 0.000000 0.000000 0.000000 0.000000 10.000000 
Rope1_Seg01 0.000000 0.000000 0.000000 0.000000 0.000000 0.000000 10.000000 
Rope1_Seg02 0.000000 0.000000 0.000000 0.000000 0.000000 0.000000 10.000000 
Rope1_Seg03 0.000000 0.000000 0.000000 0.000000 0.000000 0.000000 10.000000 
Rope1_Seg04 0.000000 0.000000 0.000000 0.000000 0.000000 0.000000 10.000000 
Rope1_Seg05 0.000000 0.000000 0.000000 0.000000 0.000000 0.000000 10.000000 
Rope1_Seg06 0.000000 0.000000 0.000000 0.000000 0.000000 0.000000 10.000000 
Rope1_Seg07 0.000000 0.000000 0.000000 0.000000 0.000000 0.000000 10.000000 
Rope1_Seg09 0.000000 0.000000 0.000000 0.000000 0.000000 0.000000 10.000000 
L_mid_hand01 0.000000 0.000000 0.000000 0.000000 0.000000 0.000000 10.000000 
L_mid_hand02 0.000000 0.000000 0.000000 0.000000 0.000000 0.000000 10.000000 
L_mid_hand03 0.000000 0.000000 0.000000 0.000000 0.000000 0.000000 10.000000 
null_rope02_connect 0.000000 0.000000 0.000000 0.000000 0.000000 0.000000 10.000000 
Rope2_Seg01 0.000000 0.000000 0.000000 0.000000 0.000000 0.000000 10.000000 
Rope2_Seg02 0.000000 0.000000 0.000000 0.000000 0.000000 0.000000 10.000000 
Rope2_Seg03 0.000000 0.000000 0.000000 0.000000 0.000000 0.000000 10.000000 
Rope2_Seg04 0.000000 0.000000 0.000000 0.000000 0.000000 0.000000 10.000000 
Rope2_Seg05 0.000000 0.000000 0.000000 0.000000 0.000000 0.000000 10.000000 
Rope2_Seg06 0.000000 0.000000 0.000000 0.000000 0.000000 0.000000 10.000000 
Rope2_Seg07 0.000000 0.000000 0.000000 0.000000 0.000000 0.000000 10.000000 
Rope2_Seg09 0.000000 0.000000 0.000000 0.000000 0.000000 0.000000 10.000000 
R_mid_hand01 0.000000 0.000000 0.000000 0.000000 0.000000 0.000000 10.000000 
R_mid_hand02 0.000000 0.000000 0.000000 0.000000 0.000000 0.000000 10.000000 
R_mid_hand03 0.000000 0.000000 0.000000 0.000000 0.000000 0.000000 10.000000 
spine02 0.000000 0.000000 0.000000 0.000000 0.000000 0.000000 10.000000 
spine03 0.000000 0.000000 0.000000 0.000000 0.000000 0.000000 10.000000 
pelvis 0.000000 0.000000 0.000000 0.000000 0.000000 0.000000 10.000000 
null_rope03_connect 0.000000 0.000000 0.000000 0.000000 0.000000 0.000000 10.000000 
null_rope04_connect 0.000000 0.000000 0.000000 0.000000 0.000000 0.000000 10.000000 
Rope3_Seg01 0.000000 0.000000 0.000000 0.000000 0.000000 0.000000 10.000000 
Rope3_Seg02 0.000000 0.000000 0.000000 0.000000 0.000000 0.000000 10.000000 
Rope3_Seg03 0.000000 0.000000 0.000000 0.000000 0.000000 0.000000 10.000000 
Rope3_Seg04 0.000000 0.000000 0.000000 0.000000 0.000000 0.000000 10.000000 
Rope3_Seg05 0.000000 0.000000 0.000000 0.000000 0.000000 0.000000 10.000000 
Rope3_Seg06 0.000000 0.000000 0.000000 0.000000 0.000000 0.000000 10.000000 
Rope3_Seg07 0.000000 0.000000 0.000000 0.000000 0.000000 0.000000 10.000000 
Rope3_Seg08 0.000000 0.000000 0.000000 0.000000 0.000000 0.000000 10.000000 
Rope3_Seg09 0.000000 0.000000 0.000000 0.000000 0.000000 0.000000 10.000000 
R_rear_hand01 0.000000 0.000000 0.000000 0.000000 0.000000 0.000000 10.000000 
R_rear_hand02 0.000000 0.000000 0.000000 0.000000 0.000000 0.000000 10.000000 
R_rear_hand03 0.000000 0.000000 0.000000 0.000000 0.000000 0.000000 10.000000 
Rope4_Seg01 0.000000 0.000000 0.000000 0.000000 0.000000 0.000000 10.000000 
Rope4_Seg02 0.000000 0.000000 0.000000 0.000000 0.000000 0.000000 10.000000 
Rope4_Seg03 0.000000 0.000000 0.000000 0.000000 0.000000 0.000000 10.000000 
Rope4_Seg04 0.000000 0.000000 0.000000 0.000000 0.000000 0.000000 10.000000 
Rope4_Seg05 0.000000 0.000000 0.000000 0.000000 0.000000 0.000000 10.000000 
Rope4_Seg06 0.000000 0.000000 0.000000 0.000000 0.000000 0.000000 10.000000 
Rope4_Seg07 0.000000 0.000000 0.000000 0.000000 0.000000 0.000000 10.000000 
Rope4_Seg08 0.000000 0.000000 0.000000 0.000000 0.000000 0.000000 10.000000 
Rope4_Seg09 0.000000 0.000000 0.000000 0.000000 0.000000 0.000000 10.000000 
L_rear_hand01 0.000000 0.000000 0.000000 0.000000 0.000000 0.000000 10.000000 
L_rear_hand02 0.000000 0.000000 0.000000 0.000000 0.000000 0.000000 10.000000 
L_rear_hand03 0.000000 0.000000 0.000000 0.000000 0.000000 0.000000 10.000000 
#Beginning of Data. Separated by tabs
#Fr	Tx	Ty	Tz	Rx	Ry	Rz	SF
[MASTER]
42 0.000000 0.000000 0.000000 0.001660 0.001660 0.001660 0.000000
43 0.000000 0.000000 0.000000 0.001660 0.001660 0.001660 0.000000
[root]
42 -17.593447 -138.088196 976.039124 -87.337090 -54.976402 -92.076149 985.915955
43 -17.322336 -149.103027 966.801880 -87.064667 -56.230732 -92.262833 978.385193
[chest]
42 -84.512650 -34.090519 0.000000 2.220609 -1.901847 -125.318726 91.129311
43 -84.512650 -34.090519 0.000000 2.229609 -1.856331 -125.220757 91.129311
[L_mid_tent01]
42 27.299500 22.177483 -249.917984 -17.798807 -7.284148 86.679482 252.380859
43 27.299500 22.177483 -249.917984 -17.924454 -6.288195 90.804535 252.380859
[R_mid_tent01]
42 23.228794 24.509907 226.238495 -171.758743 4.261491 82.611053 228.744751
43 23.228794 24.509907 226.238495 -172.089539 3.831132 86.040253 228.744751
[spine01]
42 -0.361383 -0.195265 0.000000 0.001933 0.001332 20.878996 0.410763
43 -0.361383 -0.195265 0.000000 0.001935 0.001330 21.009338 0.410763
[Bip01_Neck]
42 165.484543 71.581718 0.000119 175.896118 1.177290 24.871183 180.302734
43 165.484543 71.581718 0.000119 175.896118 1.177290 24.871183 180.302734
[L_humerus]
42 -13.983130 -135.272980 -120.471481 -92.616882 0.594538 -176.444962 181.680161
43 -13.983130 -135.272980 -120.471481 -92.606003 0.596760 -176.332962 181.680161
[R_humerus]
42 -13.983309 -135.273102 125.287651 103.000740 1.729732 -169.272232 184.909012
43 -13.983309 -135.273102 125.287651 103.000740 1.729734 -169.272232 184.909012
[weapon_bone]
42 235.964890 -300.705902 0.000000 0.000000 -89.951546 -128.212341 382.234833
43 235.964890 -300.705902 0.000000 0.000000 -89.951546 -128.212341 382.234833
[Bip01_Head]
42 102.819786 23.735483 5.410354 3.150732 3.423701 -20.839092 105.662445
43 102.819786 23.735477 5.410359 3.150732 3.423701 -20.839092 105.662453
[eye_left_bone]
42 -24.626970 125.451866 -64.772606 0.000000 -90.000000 -99.840431 143.318359
43 -24.626970 125.451866 -64.772606 0.000000 -90.000000 -99.840431 143.318359
[eye_right_bone]
42 -24.626970 125.451866 64.327362 0.000000 -89.960434 80.159386 143.117676
43 -24.626970 125.451866 64.327362 0.000000 -89.960434 80.159386 143.117676
[L_forearm]
42 322.776093 0.000000 -0.000119 0.000084 0.002346 -85.878716 322.776093
43 322.776093 0.000000 -0.000119 0.000076 0.002346 -86.282722 322.776093
[L_front_hand]
42 241.149185 -0.042021 -3.300071 -177.736664 -0.149940 -77.590874 241.171753
43 241.149185 -0.042021 -3.300071 -177.736481 -0.147307 -77.724167 241.171753
[L_weapon_bone]
42 156.183838 0.000000 0.000000 0.002069 0.001109 33.607582 156.183838
43 156.183838 0.000000 0.000000 0.002028 0.001182 29.501062 156.183838
[L_front_hand01_01]
42 86.095154 20.947098 -0.655860 0.405585 -0.442306 -4.620490 88.609184
43 86.095154 20.947098 -0.655860 0.405585 -0.442306 -4.620490 88.609184
[L_front_hand02_01]
42 86.935165 -11.437475 24.513514 116.959450 3.630817 1.495453 91.046425
43 86.935165 -11.437475 24.513514 116.959450 3.630817 1.495453 91.046425
[L_front_hand03_01]
42 86.637497 -14.123976 -20.424902 -118.420097 -4.656303 -0.152527 90.126129
43 86.637497 -14.123976 -20.424902 -118.420097 -4.656303 -0.152527 90.126129
[L_front_hand01_02]
42 71.020905 -0.000179 0.000030 0.001534 0.001777 -8.378850 71.020905
43 71.020905 -0.000179 0.000030 0.001534 0.001777 -8.378851 71.020905
[L_front_hand02_02]
42 71.020927 -0.000119 0.000060 0.001534 0.001777 -8.378850 71.020927
43 71.020927 -0.000119 0.000060 0.001534 0.001777 -8.378851 71.020927
[L_front_hand03_02]
42 71.020905 -0.000060 0.000060 0.001534 0.001777 -8.378850 71.020905
43 71.020905 -0.000060 0.000060 0.001534 0.001777 -8.378851 71.020905
[R_forearm]
42 322.776428 -0.000060 0.000030 0.209843 -0.000207 -91.168900 322.776428
43 322.776428 -0.000060 0.000030 0.213349 -0.004974 -90.467468 322.776428
[R_front_hand]
42 238.847015 -0.006795 2.210259 -1.696064 -0.330822 -89.801994 238.857239
43 238.847015 -0.006795 2.210259 -1.693682 -0.340443 -90.129883 238.857239
[R_weapon_bone]
42 155.664093 0.002503 -0.000030 0.002895 0.002273 -129.860260 155.664078
43 155.664093 0.002503 -0.000030 0.002987 0.002151 -125.111763 155.664078
[R_front_hand01_01]
42 87.624611 14.231146 22.918642 -116.960205 3.496675 -1.324138 91.683487
43 87.624611 14.231146 22.918642 -116.960213 3.496675 -1.324139 91.683487
[R_front_hand02_01]
42 89.356956 14.367283 -19.491137 118.419647 -4.257089 0.609827 92.579636
43 89.356956 14.367283 -19.491137 118.419647 -4.257089 0.609827 92.579636
[R_front_hand03_01]
42 87.286232 -22.307278 -0.143439 -0.387970 -0.231462 4.232001 90.091743
43 87.286232 -22.307278 -0.143439 -0.387970 -0.231462 4.232001 90.091743
[R_front_hand01_02]
42 71.020905 0.000060 0.000119 0.001777 0.001534 8.377220 71.020905
43 71.020905 0.000060 0.000119 0.001777 0.001534 8.377220 71.020905
[R_front_hand02_02]
42 71.020844 -0.000030 -0.000119 0.001777 0.001534 8.377220 71.020836
43 71.020844 -0.000030 -0.000119 0.001777 0.001534 8.377220 71.020836
[R_front_hand03_02]
42 71.020905 0.000000 0.000030 0.001777 0.001534 8.377220 71.020905
43 71.020905 0.000000 0.000030 0.001777 0.001534 8.377220 71.020905
[null_rope01_connect]
42 328.732483 0.000000 -0.000238 122.921181 -71.597527 -63.238064 328.732483
43 328.732483 0.000000 -0.000238 122.435585 -71.818474 -65.747658 328.732483
[Rope1_Seg01]
42 0.000000 0.000000 0.000000 121.245445 39.174355 154.253830 0.000000
43 0.000000 0.000000 0.000000 120.460251 41.793701 151.503174 0.000000
[Rope1_Seg02]
42 139.999863 -0.000179 0.000000 -3.028551 -11.892316 22.987789 139.999863
43 139.999863 -0.000179 0.000000 -4.043462 -14.272883 30.277269 139.999863
[Rope1_Seg03]
42 139.999924 0.000060 -0.000060 -7.074158 -26.200758 39.021938 139.999924
43 139.999924 0.000060 -0.000060 -3.000974 -24.021517 38.657185 139.999924
[Rope1_Seg04]
42 139.999924 -0.000060 -0.000119 46.260078 -5.827781 29.203201 139.999924
43 139.999924 -0.000060 -0.000119 55.346249 -1.143071 26.568838 139.999924
[Rope1_Seg05]
42 139.999832 0.000119 -0.000060 61.901997 33.951862 23.894386 139.999832
43 139.999832 0.000119 -0.000060 51.482826 36.766922 16.946489 139.999832
[Rope1_Seg06]
42 139.999954 0.000119 -0.000060 4.761199 15.299113 -5.074366 139.999954
43 139.999954 0.000119 -0.000060 4.033016 15.543762 -5.693966 139.999954
[Rope1_Seg07]
42 139.999985 0.000060 0.000000 1.280307 6.571598 -2.758888 139.999985
43 139.999985 0.000060 0.000000 1.052112 6.841887 -3.072171 139.999985
[Rope1_Seg09]
42 121.602913 0.000119 -0.000089 -89.793175 -1.359789 0.847147 121.602913
43 121.602913 0.000119 -0.000089 -89.793175 -1.359789 0.847147 121.602913
[L_mid_hand01]
42 103.859421 1.038730 8.195221 104.372162 -2.728647 -1.230241 104.187431
43 103.859421 1.038730 8.195221 104.361435 -2.120574 -1.075670 104.187431
[L_mid_hand02]
42 105.572853 -4.139662 -10.864139 -135.810547 6.117862 -5.658485 106.211075
43 105.572853 -4.139662 -10.864139 -135.762924 5.680238 -5.207105 106.211075
[L_mid_hand03]
42 104.641464 17.579376 -3.913581 -18.751799 0.692314 5.940560 106.179977
43 104.641464 17.579376 -3.913581 -18.759621 0.494786 5.350797 106.179977
[null_rope02_connect]
42 328.732849 0.000179 -0.000119 132.599808 79.851288 -109.995125 328.732849
43 328.732849 0.000179 -0.000119 133.051605 80.331917 -107.329300 328.732849
[Rope2_Seg01]
42 0.000095 0.000153 0.000063 -60.294594 46.271938 36.109837 0.000191
43 0.000095 0.000153 0.000064 -54.554928 49.385098 45.624878 0.000191
[Rope2_Seg02]
42 139.999741 -0.000060 -0.000119 3.424124 -16.722595 -4.628454 139.999756
43 139.999741 -0.000060 -0.000119 3.120541 -19.195057 -7.082792 139.999756
[Rope2_Seg03]
42 140.000107 0.000030 0.000000 -2.174497 -41.573322 -5.705135 140.000107
43 140.000107 0.000030 0.000000 -4.369956 -43.114326 -12.922192 140.000107
[Rope2_Seg04]
42 139.999802 0.000000 -0.000060 -23.780842 -37.104847 -25.107870 139.999802
43 139.999802 0.000000 -0.000060 -25.490196 -31.581911 -27.790731 139.999802
[Rope2_Seg05]
42 139.999985 -0.000060 0.000119 -23.729521 -8.145061 -35.714455 139.999985
43 139.999985 -0.000060 0.000119 -21.293728 -6.023734 -35.101791 139.999985
[Rope2_Seg06]
42 139.999893 -0.000030 -0.000119 -5.214518 1.656995 -12.376706 139.999893
43 139.999893 -0.000030 -0.000119 -4.724051 2.109725 -12.720456 139.999893
[Rope2_Seg07]
42 139.999893 0.000060 -0.000060 -1.589600 1.097449 -4.872376 139.999893
43 139.999893 0.000060 -0.000060 -1.363497 1.229853 -4.955880 139.999893
[Rope2_Seg09]
42 121.338966 0.000089 -0.000060 33.793236 -1.359788 -0.847141 121.338966
43 121.338966 0.000089 -0.000060 33.793236 -1.359788 -0.847141 121.338966
[R_mid_hand01]
42 104.680779 11.144459 -10.335981 -47.239338 5.169169 7.492290 105.778534
43 104.680779 11.144459 -10.335981 -47.275970 4.733552 7.085044 105.778534
[R_mid_hand02]
42 104.070427 2.443552 8.231699 75.575958 -5.157219 1.858660 104.424065
43 104.070427 2.443552 8.231699 75.589203 -4.579606 1.710540 104.424065
[R_mid_hand03]
42 106.028137 -11.221827 -5.996406 -164.524567 3.300879 -9.032541 106.788818
43 106.028137 -11.221827 -5.996406 -164.492615 3.138922 -8.457563 106.788818
[spine02]
42 129.756927 0.001550 0.000119 -2.414547 -3.561651 27.666977 129.756927
43 129.756927 0.001550 0.000119 -2.535188 -3.519884 29.590347 129.756927
[spine03]
42 79.025276 0.015710 -0.881783 4.159111 6.387557 39.027767 79.030197
43 79.035309 0.013965 -0.783808 4.285070 6.615248 40.397850 79.039200
[pelvis]
42 169.435242 0.051022 0.000000 -5.923376 -2.522583 11.105185 169.435257
43 169.435242 0.051022 0.000000 -6.073496 -2.562322 11.424914 169.435257
[null_rope03_connect]
42 -1.257226 -2.466202 137.391083 156.248856 -85.894783 -109.509010 137.418976
43 -1.257226 -2.466202 137.391083 156.351410 -85.788300 -112.072762 137.418976
[null_rope04_connect]
42 -1.259640 -2.480268 -137.844437 156.248856 -85.894783 -109.509010 137.872513
43 -1.259640 -2.480268 -137.844437 156.351410 -85.788300 -112.072762 137.872513
[Rope3_Seg01]
42 0.000000 0.000000 0.000000 -162.277115 72.003059 -99.128242 0.000000
43 0.000000 0.000000 0.000000 -167.341522 75.059341 -103.040367 0.000000
[Rope3_Seg02]
42 139.999924 -0.000119 0.000060 -5.093472 -9.836629 6.271220 139.999924
43 139.999924 -0.000119 0.000060 -4.859427 -9.715148 5.722554 139.999924
[Rope3_Seg03]
42 139.999924 -0.000119 0.000119 -16.753922 -31.403004 18.577272 139.999924
43 139.999924 -0.000119 0.000119 -14.295775 -29.088919 15.649475 139.999924
[Rope3_Seg04]
42 139.999924 0.000119 0.000000 -9.477230 -39.041649 13.412612 139.999924
43 139.999924 0.000119 0.000000 -9.183110 -38.821556 13.052269 139.999924
[Rope3_Seg05]
42 139.999924 -0.000238 0.000060 1.273731 -49.892162 14.766989 139.999924
43 139.999924 -0.000238 0.000060 2.333085 -41.894070 10.009522 139.999924
[Rope3_Seg06]
42 139.999893 -0.000119 -0.000060 7.100770 -51.897274 28.295317 139.999893
43 139.999893 -0.000119 -0.000060 4.899082 -60.922100 33.602947 139.999893
[Rope3_Seg07]
42 139.999771 0.000060 -0.000119 3.444311 -7.401838 6.565665 139.999771
43 139.999771 0.000060 -0.000119 4.135155 -8.873670 8.131697 139.999771
[Rope3_Seg08]
42 139.999985 -0.000060 0.000000 1.639502 -2.598868 2.621492 139.999985
43 139.999985 -0.000060 0.000000 1.774262 -2.801113 3.001508 139.999985
[Rope3_Seg09]
42 90.185997 -0.000179 -0.000060 89.793228 -1.359877 -0.847183 90.185997
43 90.185997 -0.000179 -0.000060 89.793228 -1.359877 -0.847183 90.185997
[R_rear_hand01]
42 103.366196 -6.073594 -10.757982 -156.340225 7.184232 -5.335166 104.101845
43 103.366196 -6.073594 -10.757982 -156.276321 6.964060 -4.829760 104.101845
[R_rear_hand02]
42 100.509819 12.039542 -7.992327 -38.599327 3.679343 7.613203 101.543350
43 100.509819 12.039542 -7.992327 -38.626495 3.336618 7.185684 101.543350
[R_rear_hand03]
42 101.539970 5.215704 5.435467 84.293999 -5.102992 4.372508 101.819031
43 101.539970 5.215704 5.435467 84.294273 -4.561885 4.320120 101.819031
[Rope4_Seg01]
42 0.000000 0.000000 0.000000 87.433472 75.842064 -73.192169 0.000000
43 0.000000 0.000000 0.000000 87.313530 77.947968 -74.080734 0.000000
[Rope4_Seg02]
42 139.999985 0.000060 0.000119 2.785443 2.362594 -6.793281 139.999985
43 139.999985 0.000060 0.000119 2.755769 2.493606 -7.142851 139.999985
[Rope4_Seg03]
42 139.999924 0.000000 -0.000238 5.897261 5.567468 -19.467813 139.999924
43 139.999924 0.000000 -0.000238 5.547526 5.681129 -19.794380 139.999924
[Rope4_Seg04]
42 139.999985 0.000000 0.000119 2.065161 7.199710 -54.277367 139.999985
43 139.999985 0.000000 0.000119 1.732981 7.446734 -51.480545 139.999985
[Rope4_Seg05]
42 139.999802 -0.000060 -0.000119 -6.698882 2.371828 -33.685333 139.999802
43 139.999802 -0.000060 -0.000119 -5.341773 2.430675 -30.599125 139.999802
[Rope4_Seg06]
42 139.999924 0.000000 0.000060 -30.507170 10.499413 -63.777016 139.999924
43 139.999924 0.000000 0.000060 -28.967474 9.325335 -64.325241 139.999924
[Rope4_Seg07]
42 139.999802 0.000000 0.000000 -9.087472 12.609138 -18.390739 139.999802
43 139.999802 0.000000 0.000000 -11.560515 14.234799 -22.717255 139.999802
[Rope4_Seg08]
42 139.999924 0.000000 0.000119 -3.081839 3.901930 -4.302171 139.999924
43 139.999924 0.000000 0.000119 -3.195472 4.117648 -4.604771 139.999924
[Rope4_Seg09]
42 90.185791 0.000060 0.000060 -135.617828 2.228885 0.850567 90.185791
43 90.185791 0.000060 0.000060 -135.617828 2.228885 0.850567 90.185791
[L_rear_hand01]
42 101.696655 -8.392275 -7.654577 -38.721107 -1.640313 174.936584 102.329041
43 101.696655 -8.392275 -7.654577 -38.728920 -1.268106 175.399002 102.329041
[L_rear_hand02]
42 102.726799 -1.568258 5.773216 84.309654 1.862415 175.950653 102.900848
43 102.726799 -1.568258 5.773216 84.308762 1.266227 176.012085 102.900848
[L_rear_hand03]
42 104.552910 9.721220 -10.420293 -155.999603 -5.866341 -177.669922 105.519653
43 104.552910 9.721220 -10.420293 -155.942017 -5.624123 -178.218872 105.519653
